<svg xmlns="http://www.w3.org/2000/svg" id="Layer_1" data-name="Layer 1" viewBox="0 0 1820 192"><defs><style>.cls-1{isolation:isolate;}.cls-2{fill:#fff;}</style></defs><g class="cls-1"><path class="cls-2" d="M-50,95.73C-50,30.93-14.8,0,67.33,0,149.2,0,184.67,31.2,184.67,95.73c0,64.8-35.47,96.27-117.34,96.27C-14.8,192-50,160.8-50,95.73Zm165.33,0c0-19.46-6.93-37.06-48-37.06s-48,17.33-48,37.06c0,20,7.2,37.6,48,37.6S115.33,115.47,115.33,95.73Z"></path><path class="cls-2" d="M310,192c-82.13,0-117.33-31.2-117.33-96.27V2.67H262V95.73c0,20,7.2,37.6,48,37.6s48-17.86,48-37.6V2.67h69.33V95.73C427.33,160.53,391.87,192,310,192Z"></path><path class="cls-2" d="M623.07,135.73l33.06,53.6H574L548.13,145.6h-40.8v43.73H438V2.67H584.67c42.4,0,71.46,29.86,71.46,71.46C656.13,101.33,643.6,123.73,623.07,135.73ZM507.33,86.93h64c6.94,0,15.47,0,15.47-12.8s-8.53-12.8-15.47-12.8h-64Z"></path><path class="cls-2" d="M1158,2.67l-61.33,186.66H993.73L963.07,81.87,932.4,189.33H829.47L768.13,2.67h74.4L881.2,134.4,921.73,2.67h82.67l40.53,131.73L1083.6,2.67Z"></path><path class="cls-2" d="M1147.33,95.73c0-64.8,35.2-95.73,117.34-95.73C1346.53,0,1382,31.2,1382,95.73c0,64.8-35.47,96.27-117.33,96.27C1182.53,192,1147.33,160.8,1147.33,95.73Zm165.34,0c0-19.46-6.94-37.06-48-37.06s-48,17.33-48,37.06c0,20,7.2,37.6,48,37.6S1312.67,115.47,1312.67,95.73Z"></path><path class="cls-2" d="M1575.07,135.73l33.06,53.6H1526l-25.87-43.73h-40.8v43.73H1390V2.67h146.67c42.4,0,71.46,29.86,71.46,71.46C1608.13,101.33,1595.6,123.73,1575.07,135.73Zm-115.74-48.8h64c6.94,0,15.47,0,15.47-12.8s-8.53-12.8-15.47-12.8h-64Z"></path><path class="cls-2" d="M1762.53,90.67,1870,189.33h-96l-59.73-59.2-28.8,23.74v35.46h-69.34V2.67h69.34V75.73l85.86-73.06H1870Z"></path></g></svg>