<svg xmlns="http://www.w3.org/2000/svg" width="1555" height="475" viewBox="0 0 1555 475" fill="none"><path d="M232.9 2.99999H0.7V62.4H81.7V192H151.9V62.4H232.9V2.99999ZM440.768 57V2.99999H240.968V192H440.768V138H311.168V120.45H440.768V74.55H311.168V57H440.768ZM629.642 192H706.862L628.562 2.99999H524.342L446.042 192H523.262L536.222 157.98H616.682L629.642 192ZM554.582 109.38L576.452 51.6L598.322 109.38H554.582ZM1001.85 2.99999H915.454L857.134 111L798.814 2.99999H712.414V192H782.614V102.09L834.184 192H880.084L931.654 102.09V192H1001.85V2.99999ZM1394.89 148.26C1382.47 142.86 1370.86 138 1360.06 133.41C1366.81 124.77 1373.02 115.32 1378.96 104.79L1321.18 82.65C1315.24 91.83 1309.03 100.2 1302.55 107.49C1288.78 101.01 1277.17 95.07 1267.72 90.21C1303.9 78.6 1325.23 64.83 1325.23 43.5C1325.23 15.15 1289.59 0.29999 1244.23 0.29999C1190.5 0.29999 1162.15 15.15 1162.15 46.2C1162.15 60.78 1168.09 73.47 1181.05 86.7C1152.7 92.37 1120.84 103.17 1120.84 139.89C1120.84 174.99 1154.05 194.7 1221.55 194.7C1262.59 194.7 1294.72 186.6 1321.18 169.59C1335.76 176.61 1351.15 184.17 1367.89 192L1394.89 148.26ZM1244.23 43.5C1255.84 43.5 1260.43 47.82 1260.43 55.38C1260.43 63.48 1253.68 69.15 1240.72 73.74C1230.19 65.91 1226.95 60.24 1226.95 55.38C1226.95 47.82 1232.62 43.5 1244.23 43.5ZM1226.41 140.7C1195.9 140.7 1185.64 133.95 1185.64 124.5C1185.64 116.94 1192.66 112.08 1206.16 107.22C1219.39 116.4 1236.13 126.12 1256.38 136.92C1247.47 139.35 1237.48 140.7 1226.41 140.7ZM0.7 377.23C0.7 443.11 36.34 474.7 119.5 474.7C195.37 474.7 234.52 447.97 237.49 388.03H165.67C162.97 406.12 149.2 415.3 119.5 415.3C78.19 415.3 70.9 397.48 70.9 377.23C70.9 357.25 77.92 339.7 119.5 339.7C149.2 339.7 162.97 348.61 165.67 366.43H237.49C234.52 306.76 195.1 280.3 119.5 280.3C36.34 280.3 0.7 311.62 0.7 377.23ZM483.314 377.23V283H413.114V377.23C413.114 397.21 405.824 415.3 364.514 415.3C323.204 415.3 315.914 397.48 315.914 377.23V283H245.714V377.23C245.714 443.11 281.354 474.7 364.514 474.7C447.404 474.7 483.314 442.84 483.314 377.23ZM564.293 412.6V283H494.093V472H688.493V412.6H564.293ZM869.404 283H637.204V342.4H718.204V472H788.404V342.4H869.404V283ZM1115.07 377.23V283H1044.87V377.23C1044.87 397.21 1037.58 415.3 996.272 415.3C954.962 415.3 947.672 397.48 947.672 377.23V283H877.472V377.23C877.472 443.11 913.112 474.7 996.272 474.7C1079.16 474.7 1115.07 442.84 1115.07 377.23ZM1346.71 355.36C1346.71 313.24 1317.28 283 1274.35 283H1125.85V472H1196.05V427.72H1237.36L1263.55 472H1346.71L1313.23 417.73C1334.02 405.58 1346.71 382.9 1346.71 355.36ZM1196.05 342.4H1260.85C1267.87 342.4 1276.51 342.4 1276.51 355.36C1276.51 368.32 1267.87 368.32 1260.85 368.32H1196.05V342.4ZM1554.52 337V283H1354.72V472H1554.52V418H1424.92V400.45H1554.52V354.55H1424.92V337H1554.52Z" fill="white"></path></svg>